<svg xmlns="http://www.w3.org/2000/svg">
  <symbol viewBox="0 0 24 24" id="fb">
		<path d="M13.3309 3.32083H15.1567V0.140833C14.8417 0.0975 13.7584 0 12.4967 0C9.86422 0 8.06088 1.65583 8.06088 4.69917V7.5H5.15588V11.055H8.06088V20H11.6226V11.0558H14.4101L14.8526 7.50083H11.6217V5.05167C11.6226 4.02417 11.8992 3.32083 13.3309 3.32083Z"/>
	</symbol>

 <symbol viewBox="0 0 24 24" id='l-in'>
   <path d="M19.9951 19.9999V19.999H20.0001V12.664C20.0001 9.07569 19.2276 6.31152 15.0326 6.31152C13.0159 6.31152 11.6626 7.41819 11.1101 8.46736H11.0517V6.64652H7.07422V19.999H11.2159V13.3874C11.2159 11.6465 11.5459 9.96319 13.7017 9.96319C15.8259 9.96319 15.8576 11.9499 15.8576 13.499V19.9999H19.9951Z"/>
   <path d="M0.329956 6.64746H4.47662V20H0.329956V6.64746Z"/>
   <path d="M2.40167 0C1.07583 0 0 1.07583 0 2.40167C0 3.7275 1.07583 4.82583 2.40167 4.82583C3.7275 4.82583 4.80333 3.7275 4.80333 2.40167C4.8025 1.07583 3.72667 0 2.40167 0V0Z"/>
 </symbol>

 <symbol width="24" height="24" viewBox="0 0 24 24" id='insta'>
<path d="M11.9997 7.7643C9.65654 7.7643 7.75696 9.6607 7.75696 12C7.75696 14.3392 9.65654 16.2356 11.9997 16.2356C14.3429 16.2356 16.2425 14.3392 16.2425 12C16.2425 9.6607 14.3429 7.7643 11.9997 7.7643Z"/>
<path fill-rule="evenodd" clip-rule="evenodd" d="M5.17177 0.376693C9.67323 -0.125564 14.3268 -0.125564 18.8282 0.376693C21.3065 0.653209 23.3055 2.60263 23.5963 5.08543C24.1346 9.67952 24.1346 14.3205 23.5963 18.9145C23.3055 21.3974 21.3065 23.3469 18.8282 23.6233C14.3268 24.1256 9.67323 24.1256 5.17177 23.6233C2.69347 23.3469 0.694548 21.3974 0.403664 18.9145C-0.134555 14.3205 -0.134555 9.67952 0.403664 5.08543C0.694548 2.60263 2.69347 0.653209 5.17177 0.376693ZM18.5273 4.18035C17.8063 4.18035 17.2218 4.76385 17.2218 5.48362C17.2218 6.2034 17.8063 6.7869 18.5273 6.7869C19.2483 6.7869 19.8328 6.2034 19.8328 5.48362C19.8328 4.76385 19.2483 4.18035 18.5273 4.18035ZM5.799 12C5.799 8.58106 8.57527 5.80944 12 5.80944C15.4247 5.80944 18.2009 8.58106 18.2009 12C18.2009 15.419 15.4247 18.1906 12 18.1906C8.57527 18.1906 5.799 15.419 5.799 12Z"/>
</symbol> 
 </svg>